<!--
  - Copyright (c) 2020 yuanxiyuzhou. All rights reserved.
  - Created by 元悉宇宙 (306991142@qq.com)
  - Licensed under the Apache License, Version 2.0 or a commercial license.
  - For Apache License Version 2.0 see License in the project root for license information.
  - For commercial licenses see term.md or contact 306991142@qq.com
  -->

<svg
   xmlns:dc="http://purl.org/dc/elements/1.1/"
   xmlns:cc="http://creativecommons.org/ns#"
   xmlns:rdf="http://www.w3.org/1999/02/22-rdf-syntax-ns#"
   xmlns:svg="http://www.w3.org/2000/svg"
   xmlns="http://www.w3.org/2000/svg"
   id="svg60"
   version="1.1"
   viewBox="0 0 235 72">
  <metadata
     id="metadata66">
    <rdf:RDF>
      <cc:Work
         rdf:about="">
        <dc:format>image/svg+xml</dc:format>
        <dc:type
           rdf:resource="http://purl.org/dc/dcmitype/StillImage" />
      </cc:Work>
    </rdf:RDF>
  </metadata>
  <defs
     id="defs64" />
  <svg
     height="100%"
     width="100%"

     id="svg9"
     version="1.1"
     viewBox="0 0 235 72">
    <linearGradient
       y2="0"
       x2="1"
       y1="0"
       x1="0"
       id="bg_color_gradient">
      <stop
         id="stop2"
         style="stop-color:#ffffff;stop-opacity:0"
         offset="0%" />
      <stop
         id="stop4"
         style="stop-color:#ffffff;stop-opacity:0"
         offset="100%" />
    </linearGradient>
    <path
       id="rect7"
       d="M 0,0 H 235 V 72 H 0 Z"
       style="fill:url(#bg_color_gradient);fill-opacity:0" />
  </svg>
  <svg
     id="svg15"
     version="1.1"
     height="64"
     width="64"
     y="4"
     x="0">
    <svg
       height="100%"
       width="100%"
       id="svg13"
       version="1.1"
       viewBox="0 0 100 100">
      <path
         style="fill:#CF2E25;fill-rule:evenodd;stroke:none"
         id="path11"
         d="m 0.2,14.3 c 0,7.755 0.068,14.096 0.15,14.09 0.083,-0.005 3.21,-2.38 6.95,-5.278 3.813,-2.954 6.888,-5.2 7,-5.115 0.11,0.084 15.815,11.606 34.9,25.604 19.085,13.998 34.8,25.53 34.923,25.627 0.145,0.115 2.91,-1.895 7.944,-5.776 L 99.788,57.5 99.794,49.963 99.8,42.427 98.95,41.742 C 98.483,41.365 85.572,31.864 70.26,20.628 L 42.421,0.2 H 21.31 0.2 V 14.3 M 62.007,0.472 c 0.161,0.149 8.618,6.598 18.793,14.329 10.175,7.732 18.613,14.146 18.75,14.253 0.199,0.156 0.25,-2.739 0.25,-14.33 V 0.2 H 80.757 C 64.702,0.2 61.76,0.243 62.007,0.472 M 7.938,36.555 0.214,42.5 0.207,50.019 c -0.006,6.914 0.021,7.544 0.343,7.833 0.193,0.172 13.126,9.681 28.741,21.131 L 57.682,99.8 H 78.741 99.8 V 85.7 c 0,-7.755 -0.046,-14.1 -0.103,-14.1 -0.056,0 -3.172,2.363 -6.924,5.25 -3.752,2.888 -6.848,5.25 -6.879,5.25 C 85.842,82.1 76.857,75.513 31.2,42.005 23.775,36.555 17.241,31.762 16.681,31.354 l -1.02,-0.743 -7.723,5.944 M 0.2,85.276 V 99.8 h 19.043 c 16.169,0 18.999,-0.042 18.75,-0.275 C 37.773,99.318 4.524,73.999 0.85,71.241 L 0.2,70.753 v 14.523" />
    </svg>
  </svg>
  <g
     transform="translate(149,27.375)"
     id="container">
    <g
       id="text17"
       style="font-size:40px;font-family:Dream-LiQianGB;fill:#CF2E25;fill-opacity:1"
       aria-label="轩">
      <path
         id="path69"
         style="font-size:40px;font-family:Dream-LiQianGB;fill:#CF2E25;fill-opacity:1"
         d="m -49.705,17.4625 v -16.92 h 9.24 l -0.8,-1.56 h -8.44 v -13.52 h 7.52 l -0.8,-1.56 h -18.04 l 0.76,1.56 h 6.64 v 13.52 h -8.2 l 0.8,1.56 h 7.4 v 18.08 h 4.72 z m -12.96,-30.96 h -6.96 l 1.88,-5.24 h -5.24 l 0.72,1.16 -1.36,4.08 h -4.76 l 0.8,1.56 h 3.52 l -3.76,10 q -1.32,3.64 3.12,3.64 h 4.36 v 6.88 q -3.96,0.32 -8.2,0.24 l 0.48,3.36 0.96,-1 q 3.84,-0.16 6.76,-0.56 v 8.24 h 4.72 l -0.8,-1.16 v -8.08 q 2.56,-0.84 4.52,-2.36 0.88,-1 -0.36,-0.76 -2.04,1.04 -4.16,1.48 v -6.28 h 4.92 l -0.76,-1.56 h -4.16 v -8.72 h -4.68 l 0.76,1.16 v 7.56 h -1.76 q -1.68,0.08 -1.88,-0.28 -0.36,-0.44 0.16,-1.72 l 3.72,-10.08 h 8.2 z" />
    </g>
    <g
       id="text19"
       style="font-size:40px;font-family:Dream-LiQianGB;fill:#CF2E25;fill-opacity:1"
       aria-label="辕">
      <path
         id="path72"
         style="font-size:40px;font-family:Dream-LiQianGB;fill:#CF2E25;fill-opacity:1"
         d="m -25.675,-0.0975 h -2.88 v -8.4 h -4.36 l 0.76,1.16 v 7.24 h -1.32 q -1.64,0.08 -1.88,-0.28 -0.28,-0.44 0.32,-1.72 l 2.96,-9.32 h 7.44 l -0.8,-1.56 h -6.16 l 0.16,-0.4 1.72,-5.44 h -4.84 l 0.68,1.16 -1.48,4.68 h -3.68 l 0.8,1.56 h 2.44 l -3,9.4 q -1.16,3.48 3.12,3.52 h 3.52 v 7 q -3,0.2 -6.48,0.16 l 0.48,3.36 0.92,-1 q 2.92,-0.08 5.08,-0.56 v 8 h 4.4 l -0.8,-1.16 v -7.68 q 2.24,-0.8 4,-2.2 0.96,-1.2 -0.24,-0.92 -1.88,0.92 -3.76,1.4 v -6.4 h 3.6 z m 22.28,1.96 v -4.12 q -0.08,-1.72 -1.2,-2.4 -1.12,-0.72 -2.64,-0.72 h -17.88 l 0.8,1.16 v 4.2 q -0.08,1.36 0.72,2.24 0.8,0.84 3.16,0.84 h 1.96 l -4.68,6.24 q -1.08,1.28 -2.28,1.76 -1.2,0.48 -1.56,0.48 -1.04,0.52 0,0.8 h 1.64 q 2.08,0.16 3.68,-0.4 v 3.24 q -0.08,1.2 0.56,2.16 0.68,1 2.64,1.12 3.04,-0.08 5.08,-1.28 2.08,-1.2 2.88,-2.08 0.88,-1.44 -0.84,-1 -1.48,0.8 -3.04,1.36 -1.56,0.56 -2.6,0.44 -0.84,-0.24 -0.92,-1 -0.08,-0.76 0,-1.68 v -4.72 l 1.88,-2.32 1,0.6 5.72,7.88 q 1.56,1.96 3.64,2.24 2.12,0.32 4.08,0.24 h 0.92 q 1,-0.32 0,-0.84 -0.76,-0.16 -2.04,-0.64 -1.24,-0.48 -2.48,-1.84 l -3.2,-3.84 q 2.84,0.16 4.68,-2.24 l 1.96,-3.6 h -5 l 0.72,0.84 -1.04,1.96 q -0.68,1.48 -1.88,2.04 l -2.72,-3.28 h -4.2 l 1.92,-2.64 h 11.36 z m 1.24,-11.48 h -10.08 v -3.6 h 8.68 l -0.76,-1.56 h -7.92 v -4.28 h -4.6 l 0.8,1.16 v 3.12 h -8.36 l 0.76,1.56 h 7.6 v 3.6 h -10.08 l 0.76,1.56 h 24 z m -6.56,5.8 q 1.32,-0.08 1.4,1.24 v 4.08 h -11.56 q -1.8,0.16 -1.72,-1.44 v -3.88 h 11.88 z" />
    </g>
    <g
       id="text21"
       style="font-size:40px;font-family:Dream-LiQianGB;fill:#CF2E25;fill-opacity:1"
       aria-label="年">
      <path
         id="path75"
         style="font-size:40px;font-family:Dream-LiQianGB;fill:#CF2E25;fill-opacity:1"
         d="m 8.475,-17.4175 q -2.4,6.12 -3.44,7.64 -1.64,2.36 -3.28,2.36 -0.88,0.6 0.08,0.92 h 2.56 q 1.76,0.08 2.72,-0.36 1,-0.44 1.76,-2.12 l 1.64,-3.68 h 9.52 v 8.36 H 5.515 l 0.76,1.16 v 10.4 h -4.84 l 0.8,1.56 h 17.8 v 9.64 h 4.68 l -0.76,-1.16 v -8.48 h 14.36 l -0.8,-1.56 h -13.56 v -10 h 11.84 l -0.76,-1.56 h -11.08 v -8.36 h 13.2 l -0.8,-1.56 h -25.24 q 0.76,-1.84 1.64,-4.28 h -5 z m 11.56,14.68 v 10 h -9.84 v -10 z" />
    </g>
    <g
       id="text23"
       style="font-size:40px;font-family:Dream-LiQianGB;fill:#CF2E25;fill-opacity:1"
       aria-label="谱">
      <path
         id="path78"
         style="font-size:40px;font-family:Dream-LiQianGB;fill:#CF2E25;fill-opacity:1"
         d="m 42.985,-16.1775 1.72,5 q 0.56,1.4 2.44,1.48 h 3.2 q 0.72,-0.32 0.2,-0.76 -1.56,-0.32 -2.16,-1.56 l -1.88,-5.24 h -4.52 z m 0.84,29.44 q 0.36,3.92 3.68,4.2 2.6,-0.12 3.44,-2.12 0.88,-2 1.2,-4.64 l 0.36,-2.28 q -0.2,-1.08 -0.84,-0.28 -0.8,2.6 -1.4,4.6 -0.4,1.48 -1.48,1.6 -1,0.12 -1.04,-2 v -13.6 q 0.32,-4.32 -5.08,-4.2 h -2.72 l 0.76,1.56 h 1.2 q 1.88,-0.16 1.92,2.96 v 14.2 z m 10.4,-30.76 1.4,1.88 q 0.84,1.08 1.48,1.36 0.64,0.28 1.68,0.2 h 3.12 q 0.84,-0.4 0.08,-0.96 -1.44,-0.16 -2.36,-1.24 l -1.88,-2.4 h -4.92 z m 15.8,0.08 -1.24,1.4 q -0.92,0.84 -2.28,1.16 -0.8,0.52 0.24,0.8 h 2.96 q 1.96,0.12 3.2,-1.64 l 2.04,-2.96 h -5.64 z m 6.4,4.04 h -24.84 l 0.76,1.6 h 6.28 v 10.6 h -7.92 l 0.8,1.56 h 27.2 l -0.8,-1.56 h -7.72 l -0.08,-0.16 v -10.44 h 7.08 z m -14.24,12.2 -0.04,-0.16 v -10.44 h 4.44 v 10.6 z m -11.24,-7.04 q 0.72,1.8 1.4,3.36 0.8,1.6 1.96,1.4 h 3.04 q 1.04,-0.32 0.16,-0.92 -1.08,-0.08 -1.72,-1.24 -0.76,-1.76 -1.4,-3.68 h -4.44 z m 22.96,-0.28 q -0.48,1.4 -1.32,2.88 -0.68,1 -1.64,1.16 -0.84,0.56 0.08,0.88 h 3.04 q 1.12,0.12 1.96,-1.36 1.2,-2.16 2.2,-4.52 h -5 z m -4.68,13.72 q 1.88,0 2.52,0.48 0.64,0.48 0.6,1.88 v 2.56 h -14.92 v -4.92 h 11.8 z m 3.12,11.24 h -11.88 q -2.76,0.28 -3.04,-2.48 v -2.28 h 14.92 z m 3.92,0.36 v -9.32 q 0.04,-2.04 -1.24,-2.92 -1.28,-0.92 -4.84,-0.92 h -17.44 l 0.8,1.2 v 9.2 q 0,2.52 1.4,3.28 1.4,0.76 4.04,0.68 h 18.08 z" />
    </g>
    <g
       id="text25"
       style="font-size:12px;font-family:'Heiti SC';fill:#CF2E25;fill-opacity:1"
       aria-label="纪">
      <path
         id="path81"
         style="font-size:12px;font-family:'Heiti SC';fill:#CF2E25;fill-opacity:1"
         d="m -63.93875,26.78 h -2.64 q -0.192,0 -0.432,0.012 -0.24,0.012 -0.48,0.036 -0.24,0.024 -0.444,0.06 -0.204,0.024 -0.324,0.06 V 26 q 0.288,0.096 0.996,0.132 0.708,0.024 1.68,0.024 0.972,0 1.524,-0.036 0.564,-0.036 0.9,-0.12 -0.036,0.24 -0.048,0.492 -0.012,0.252 -0.012,0.588 v 2.292 q 0,0.516 0.012,0.972 0.024,0.444 0.048,0.948 h -0.78 v -0.84 h -3.252 v 3.888 q 0,0.24 0.072,0.396 0.084,0.144 0.3,0.24 0.228,0.084 0.648,0.108 0.42,0.036 1.104,0.036 0.516,0 0.864,-0.024 0.348,-0.012 0.564,-0.144 0.216,-0.144 0.324,-0.444 0.108,-0.312 0.168,-0.888 0.252,0.252 0.42,0.336 0.168,0.084 0.42,0.12 -0.18,0.612 -0.384,0.96 -0.204,0.36 -0.516,0.528 -0.312,0.18 -0.792,0.216 -0.468,0.048 -1.2,0.048 -0.9,0 -1.44,-0.048 -0.54,-0.036 -0.828,-0.18 -0.288,-0.132 -0.372,-0.384 -0.084,-0.252 -0.084,-0.684 v -3.744 q 0,-0.408 -0.012,-0.612 -0.012,-0.216 -0.048,-0.42 0.132,0.024 0.264,0.036 0.144,0.012 0.324,0.024 0.18,0.012 0.432,0.012 0.252,0 0.624,0 h 2.4 z m -4.584,6.936 q -0.06,0.42 0,0.792 -0.6,0.048 -1.152,0.108 -0.552,0.06 -1.092,0.144 -0.528,0.072 -1.068,0.18 -0.528,0.108 -1.08,0.252 -0.024,-0.264 -0.072,-0.48 -0.036,-0.216 -0.156,-0.456 0.408,0 0.984,-0.024 0.588,-0.036 1.224,-0.096 0.648,-0.072 1.272,-0.168 0.636,-0.108 1.14,-0.252 z m -3.432,-4.128 q -0.276,0.024 -0.456,0.06 -0.168,0.036 -0.36,0.12 -0.048,-0.228 -0.12,-0.408 -0.06,-0.18 -0.192,-0.384 0.24,-0.072 0.516,-0.36 0.276,-0.288 0.576,-0.768 0.3,-0.48 0.588,-1.14 0.3,-0.66 0.576,-1.476 0.228,0.168 0.408,0.264 0.192,0.096 0.396,0.12 0.192,0.024 0.18,0.168 0,0.132 -0.168,0.18 -0.072,0.024 -0.168,0.108 -0.084,0.084 -0.288,0.396 -0.192,0.3 -0.54,0.9 -0.348,0.6 -0.936,1.644 l 1.944,-0.072 q 0.132,-0.18 0.24,-0.336 0.108,-0.168 0.204,-0.336 0.108,-0.18 0.204,-0.36 0.096,-0.192 0.204,-0.432 0.348,0.396 0.72,0.516 0.144,0.048 0.144,0.156 0.012,0.096 -0.156,0.156 -0.096,0.036 -0.24,0.144 -0.132,0.108 -0.444,0.48 -0.3,0.36 -0.864,1.08 -0.552,0.72 -1.5,1.968 0.648,-0.024 1.344,-0.096 0.696,-0.072 1.5,-0.204 -0.036,0.168 -0.048,0.324 0,0.156 0.012,0.312 l -2.772,0.288 q -0.42,0.048 -0.684,0.108 -0.264,0.048 -0.468,0.108 -0.012,-0.18 -0.084,-0.36 -0.072,-0.192 -0.168,-0.372 0.216,-0.048 0.408,-0.168 0.204,-0.12 0.468,-0.396 0.276,-0.288 0.648,-0.768 0.384,-0.492 0.948,-1.284 z" />
    </g>
    <g
       id="text27"
       style="font-size:12px;font-family:'Heiti SC';fill:#CF2E25;fill-opacity:1"
       aria-label="实">
      <path
         id="path84"
         style="font-size:12px;font-family:'Heiti SC';fill:#CF2E25;fill-opacity:1"
         d="m -54.62875,31.964 q 0.876,0 1.488,-0.012 0.624,-0.012 1.104,-0.024 0.48,-0.012 0.876,-0.024 0.408,-0.024 0.84,-0.06 v 0.84 q -0.456,-0.036 -0.864,-0.048 -0.396,-0.024 -0.9,-0.036 -0.504,-0.024 -1.176,-0.024 -0.66,-0.012 -1.644,-0.012 -0.288,0.564 -0.72,1.068 -0.432,0.492 -1.044,0.948 -0.6,0.456 -1.416,0.876 -0.804,0.42 -1.86,0.828 -0.132,-0.276 -0.288,-0.468 -0.156,-0.192 -0.396,-0.324 0.744,-0.132 1.464,-0.396 0.72,-0.252 1.356,-0.624 0.636,-0.372 1.176,-0.852 0.54,-0.48 0.924,-1.056 -1.008,0 -1.728,0.012 -0.708,0 -1.248,0.012 -0.54,0.012 -0.984,0.036 -0.432,0.024 -0.9,0.06 v -0.84 q 0.492,0.036 0.984,0.06 0.504,0.012 1.104,0.036 0.6,0.012 1.356,0.024 0.756,0 1.764,0 0.096,-0.204 0.168,-0.408 0.072,-0.204 0.132,-0.408 0.276,-1.044 0.348,-1.944 0.072,-0.912 -0.048,-1.536 0.576,0.072 0.924,0.072 0.324,0 0.024,0.3 -0.084,0.084 -0.108,0.24 -0.024,0.144 -0.036,0.564 -0.012,0.36 -0.108,0.948 -0.084,0.576 -0.288,1.296 -0.06,0.216 -0.132,0.444 -0.072,0.216 -0.144,0.432 z m 3.516,4.128 q -0.864,-0.768 -1.728,-1.344 -0.852,-0.588 -1.848,-1.104 l 0.384,-0.552 q 1.464,0.816 2.352,1.404 0.888,0.588 1.392,1.056 z m -5.964,-4.584 q -0.54,-0.384 -1.08,-0.696 -0.54,-0.312 -1.272,-0.624 l 0.336,-0.528 q 0.372,0.18 0.672,0.336 0.3,0.144 0.564,0.288 0.276,0.144 0.552,0.312 0.276,0.156 0.612,0.348 z m 1.236,-1.452 q -0.42,-0.348 -0.948,-0.672 -0.516,-0.324 -1.212,-0.66 l 0.372,-0.528 q 0.36,0.204 0.624,0.348 0.276,0.144 0.516,0.288 0.24,0.144 0.48,0.3 0.24,0.144 0.552,0.348 z m 0.888,-3.48 q 1.656,0 2.676,-0.024 1.032,-0.024 1.596,-0.084 -0.06,0.24 -0.084,0.456 -0.012,0.204 -0.012,0.648 0,0.36 0.012,0.636 0.024,0.264 0.06,0.504 h -0.828 v -1.56 h -7.896 V 28.7 h -0.792 q 0.072,-0.552 0.072,-1.236 0,-0.348 -0.024,-0.576 -0.012,-0.228 -0.048,-0.42 0.252,0.024 0.612,0.048 0.372,0.012 0.912,0.024 0.54,0.012 1.272,0.024 0.744,0.012 1.74,0.012 -0.288,-0.552 -0.924,-1.092 l 0.684,-0.432 q 0.288,0.336 0.504,0.684 0.228,0.348 0.468,0.84 z" />
    </g>
    <g
       id="text29"
       style="font-size:12px;font-family:'Heiti SC';fill:#CF2E25;fill-opacity:1"
       aria-label="·">
      <path
         id="path87"
         style="font-size:12px;font-family:'Heiti SC';fill:#CF2E25;fill-opacity:1"
         d="m -47.56575,31.136 h -1.128 v -1.152 h 1.128 z" />
    </g>
    <g
       id="text31"
       style="font-size:12px;font-family:'Heiti SC';fill:#CF2E25;fill-opacity:1"
       aria-label="传">
      <path
         id="path90"
         style="font-size:12px;font-family:'Heiti SC';fill:#CF2E25;fill-opacity:1"
         d="m -40.84625,29.78 q -0.756,-0.012 -1.428,0.012 -0.66,0.024 -1.032,0.06 v -0.72 q 0.384,0.036 1.008,0.06 0.636,0.012 1.608,0.012 0.132,-0.504 0.228,-0.912 0.096,-0.408 0.192,-0.732 -0.42,0 -0.756,0.012 -0.324,0.012 -0.6,0.024 -0.276,0 -0.528,0.024 -0.252,0.012 -0.504,0.036 v -0.744 q 0.264,0.024 0.516,0.048 0.264,0.012 0.564,0.024 0.3,0.012 0.648,0.024 0.348,0 0.792,0 0.084,-0.36 0.132,-0.6 0.06,-0.252 0.096,-0.456 0.036,-0.204 0.048,-0.384 0.024,-0.18 0.048,-0.396 0.492,0.156 0.936,0.168 0.228,0.012 0.252,0.144 0.024,0.132 -0.168,0.264 -0.06,0.036 -0.12,0.108 -0.048,0.072 -0.108,0.216 -0.06,0.132 -0.132,0.36 -0.072,0.216 -0.18,0.576 0.96,0 1.824,-0.024 0.864,-0.036 1.38,-0.072 v 0.744 q -0.276,-0.024 -0.648,-0.036 -0.372,-0.024 -0.816,-0.036 -0.432,-0.012 -0.924,-0.012 -0.48,-0.012 -0.984,-0.012 -0.096,0.324 -0.204,0.732 -0.108,0.408 -0.252,0.912 h 1.8 q 0.972,0 1.668,-0.024 0.708,-0.024 1.116,-0.048 v 0.72 q -0.816,-0.072 -2.784,-0.072 h -1.956 q -0.096,0.348 -0.192,0.72 -0.096,0.372 -0.216,0.792 h 2.208 q 0.336,0 0.672,0 0.348,-0.012 0.648,-0.024 0.312,-0.024 0.564,-0.036 0.252,-0.012 0.396,-0.036 v 0.84 q -0.108,0.024 -0.276,0.12 -0.168,0.084 -0.468,0.336 -0.288,0.252 -0.732,0.708 -0.444,0.456 -1.116,1.212 0.9,0.528 1.764,1.08 l -0.588,0.648 q -0.912,-0.708 -1.824,-1.26 -0.912,-0.552 -1.956,-1.068 l 0.42,-0.54 q 0.78,0.348 1.56,0.792 l 2.088,-2.22 h -4.476 q 0.168,-0.312 0.372,-0.792 0.204,-0.48 0.42,-1.272 z m -3.672,-1.008 q -0.252,0.456 -0.528,0.876 -0.264,0.42 -0.504,0.732 -0.12,-0.132 -0.36,-0.216 -0.24,-0.096 -0.54,-0.12 0.204,-0.168 0.456,-0.468 0.252,-0.3 0.516,-0.672 0.264,-0.372 0.504,-0.792 0.252,-0.42 0.444,-0.828 0.252,-0.552 0.468,-1.152 0.216,-0.612 0.324,-1.068 0.252,0.132 0.492,0.24 0.24,0.096 0.408,0.132 0.204,0.048 0.192,0.18 0,0.12 -0.264,0.228 -0.144,0.06 -0.348,0.312 -0.192,0.252 -0.3,0.576 -0.048,0.132 -0.108,0.276 -0.048,0.144 -0.12,0.312 v 8.664 h -0.864 q 0.06,-0.516 0.096,-1.176 0.036,-0.672 0.036,-1.32 z" />
    </g>
    <g
       id="text33"
       style="font-size:12px;font-family:'Heiti SC';fill:#CF2E25;fill-opacity:1"
       aria-label="承">
      <path
         id="path93"
         style="font-size:12px;font-family:'Heiti SC';fill:#CF2E25;fill-opacity:1"
         d="m -30.87625,28.796 q -0.156,1.224 -0.336,2.136 -0.18,0.9 -0.468,1.632 -0.288,0.732 -0.72,1.38 -0.42,0.648 -1.056,1.356 -0.348,-0.372 -0.768,-0.564 0.66,-0.54 1.104,-1.104 0.456,-0.564 0.744,-1.2 0.3,-0.636 0.468,-1.368 0.168,-0.744 0.264,-1.644 -0.684,0 -1.236,0.036 -0.54,0.036 -0.936,0.096 v -0.756 q 0.312,0.024 0.672,0.048 0.36,0.012 0.756,0.012 0.36,0 0.744,-0.012 0.384,-0.024 0.768,-0.048 z m 5.052,1.872 q 0.564,-0.636 0.876,-1.104 0.324,-0.468 0.528,-0.888 0.18,0.192 0.372,0.336 0.204,0.132 0.384,0.216 0.168,0.072 0.156,0.156 -0.012,0.072 -0.216,0.12 -0.096,0.024 -0.252,0.132 -0.144,0.096 -0.372,0.312 -0.216,0.204 -0.54,0.54 -0.324,0.324 -0.756,0.792 0.324,1.032 0.924,1.824 0.612,0.792 1.62,1.416 -0.396,0.252 -0.648,0.708 -0.78,-0.648 -1.308,-1.332 -0.528,-0.684 -0.876,-1.488 -0.336,-0.804 -0.54,-1.776 -0.204,-0.972 -0.348,-2.22 l 0.672,-0.108 q 0.084,1.32 0.324,2.364 z m -3.252,-0.984 q -0.924,0.012 -1.476,0.12 v -0.792 q 0.288,0.048 0.636,0.072 0.36,0.024 0.84,0.036 v -1.164 l 2.652,-1.14 h -3.924 q -0.756,0 -1.368,0.024 -0.612,0.012 -1.116,0.06 v -0.828 q 0.552,0.06 1.428,0.096 0.876,0.024 2.28,0.024 0.72,0 1.392,-0.012 0.684,-0.012 1.248,-0.024 0.564,-0.024 0.984,-0.036 0.432,-0.024 0.636,-0.048 v 0.684 q -0.12,0.024 -0.24,0.072 -0.12,0.036 -0.288,0.108 -0.156,0.06 -0.384,0.18 -0.216,0.108 -0.552,0.276 l -2.028,1.032 v 0.696 q 0.828,0 1.332,-0.108 v 0.792 q -0.252,-0.06 -0.588,-0.084 -0.324,-0.036 -0.744,-0.036 v 1.164 q 0.456,-0.012 0.792,-0.036 0.336,-0.024 0.576,-0.06 v 0.756 q -0.468,-0.084 -1.368,-0.108 v 1.2 q 0.6,0 1.104,-0.024 0.504,-0.036 0.816,-0.084 v 0.792 q -0.312,-0.06 -0.816,-0.084 -0.504,-0.036 -1.104,-0.036 v 1.632 q 0,0.372 -0.096,0.588 -0.084,0.228 -0.288,0.348 -0.204,0.132 -0.552,0.18 -0.348,0.06 -0.852,0.096 -0.012,-0.288 -0.084,-0.516 -0.072,-0.228 -0.276,-0.48 0.468,0.072 0.744,0.084 0.276,0.024 0.432,-0.024 0.156,-0.048 0.204,-0.144 0.048,-0.108 0.048,-0.276 v -1.488 q -0.588,0 -1.092,0.036 -0.492,0.024 -0.816,0.084 v -0.792 q 0.324,0.06 0.816,0.084 0.504,0.024 1.092,0.024 v -1.2 q -0.948,0.012 -1.488,0.108 v -0.756 q 0.276,0.036 0.636,0.06 0.36,0.024 0.852,0.036 z" />
    </g>
    <g
       id="text35"
       style="font-size:12px;font-family:'Heiti SC';fill:#CF2E25;fill-opacity:1"
       aria-label="·">
      <path
         id="path96"
         style="font-size:12px;font-family:'Heiti SC';fill:#CF2E25;fill-opacity:1"
         d="m -20.75325,31.136 h -1.128 v -1.152 h 1.128 z" />
    </g>
    <g
       id="text37"
       style="font-size:12px;font-family:'Heiti SC';fill:#CF2E25;fill-opacity:1"
       aria-label="开">
      <path
         id="path99"
         style="font-size:12px;font-family:'Heiti SC';fill:#CF2E25;fill-opacity:1"
         d="m -16.00175,26.816 q -1.272,0 -2.352,0.072 v -0.78 q 0.912,0.036 1.932,0.06 1.032,0.024 2.352,0.024 0.816,0 1.416,0 0.6,0 1.08,-0.012 0.48,-0.012 0.9,-0.024 0.42,-0.024 0.876,-0.048 v 0.78 q -0.504,-0.048 -0.96,-0.06 -0.444,-0.012 -0.996,-0.012 v 3.492 q 0.444,0 0.828,0 0.384,-0.012 0.732,-0.012 0.36,-0.012 0.708,-0.024 0.348,-0.024 0.708,-0.048 v 0.804 q -0.36,-0.024 -0.708,-0.036 -0.336,-0.024 -0.696,-0.024 -0.348,-0.012 -0.744,-0.012 -0.384,-0.012 -0.828,-0.012 v 3.144 q 0,0.432 0.024,0.96 0.024,0.528 0.084,1.068 h -0.948 q 0.06,-0.54 0.084,-1.068 0.024,-0.528 0.024,-0.96 v -3.156 h -2.844 q -0.084,0.936 -0.276,1.668 -0.18,0.72 -0.516,1.332 -0.336,0.6 -0.852,1.128 -0.504,0.528 -1.224,1.068 -0.132,-0.204 -0.3,-0.336 -0.156,-0.132 -0.468,-0.216 0.732,-0.432 1.248,-0.888 0.528,-0.456 0.864,-0.996 0.348,-0.552 0.528,-1.212 0.192,-0.672 0.276,-1.536 -0.948,0 -1.776,0.024 -0.828,0.012 -1.584,0.06 v -0.804 q 0.768,0.048 1.596,0.072 0.84,0.024 1.812,0.024 0.048,-1.368 0.036,-2.22 0,-0.852 -0.036,-1.284 z m 0.744,-0.012 q 0.012,0.216 0.012,0.588 0,0.372 -0.012,0.84 0,0.468 -0.012,1.008 -0.012,0.528 -0.024,1.08 h 2.808 v -3.516 z" />
    </g>
    <g
       id="text39"
       style="font-size:12px;font-family:'Heiti SC';fill:#CF2E25;fill-opacity:1"
       aria-label="创">
      <path
         id="path102"
         style="font-size:12px;font-family:'Heiti SC';fill:#CF2E25;fill-opacity:1"
         d="m 3.38825,25.772 q -0.156,0.084 -0.156,0.324 v 8.724 q 0,0.348 -0.072,0.564 -0.072,0.216 -0.288,0.348 -0.204,0.144 -0.588,0.216 -0.384,0.072 -1.02,0.12 -0.036,-0.324 -0.144,-0.54 -0.096,-0.216 -0.324,-0.468 0.576,0.108 0.912,0.132 0.348,0.036 0.516,-0.024 0.18,-0.048 0.228,-0.18 0.06,-0.144 0.06,-0.384 v -7.212 q 0,-0.636 -0.036,-1.176 -0.024,-0.54 -0.06,-0.792 0.444,0.12 0.876,0.084 0.168,-0.012 0.192,0.096 0.036,0.096 -0.096,0.168 z m -2.256,1.548 q -0.132,0.084 -0.132,0.324 v 3.636 q 0,0.18 0,0.42 0.012,0.24 0.024,0.504 0.012,0.252 0.024,0.516 0.012,0.252 0.036,0.468 h -0.864 q 0.012,-0.216 0.024,-0.468 0.024,-0.264 0.036,-0.528 0.012,-0.264 0.012,-0.492 0.012,-0.24 0.012,-0.42 v -2.688 q 0,-0.456 -0.024,-0.9 -0.024,-0.456 -0.072,-0.696 0.24,0.06 0.456,0.084 0.216,0.024 0.408,0.012 0.156,-0.024 0.168,0.06 0.024,0.084 -0.108,0.168 z m -6.492,1.968 q 0.18,0.012 0.36,0.024 0.192,0.012 0.408,0.024 0.228,0 0.504,0 0.276,0 0.624,0 0.732,0 1.2,-0.012 0.48,-0.024 0.9,-0.048 -0.048,0.156 -0.084,0.42 -0.024,0.252 -0.048,0.528 l -0.132,1.704 q -0.024,0.36 -0.108,0.6 -0.072,0.228 -0.276,0.384 -0.204,0.144 -0.576,0.228 -0.36,0.084 -0.96,0.12 -0.012,-0.24 -0.084,-0.456 -0.072,-0.228 -0.276,-0.48 0.516,0.096 0.828,0.12 0.324,0.024 0.492,-0.048 0.168,-0.084 0.228,-0.264 0.06,-0.18 0.084,-0.48 l 0.108,-1.74 h -2.604 v 4.608 q 0,0.288 0.084,0.42 0.096,0.132 0.432,0.156 0.12,0.012 0.3,0.012 0.192,0.012 0.408,0.012 0.216,0 0.42,-0.012 0.204,0 0.36,-0.012 0.42,-0.036 0.684,-0.096 0.264,-0.048 0.408,-0.192 0.156,-0.156 0.216,-0.432 0.072,-0.288 0.096,-0.768 0.168,0.192 0.372,0.288 0.204,0.084 0.444,0.108 -0.108,0.504 -0.276,0.828 -0.156,0.324 -0.396,0.528 -0.24,0.204 -0.588,0.3 -0.348,0.108 -0.828,0.144 -0.108,0.012 -0.312,0.012 -0.204,0 -0.444,0 -0.24,0 -0.48,-0.012 -0.24,0 -0.42,-0.012 -0.372,-0.036 -0.612,-0.096 -0.228,-0.06 -0.36,-0.192 -0.12,-0.132 -0.168,-0.348 -0.036,-0.204 -0.036,-0.54 v -4.02 q 0,-0.084 0,-0.216 0,-0.144 -0.012,-0.3 0,-0.168 -0.012,-0.324 0,-0.156 -0.012,-0.288 -0.204,0.276 -0.432,0.552 -0.216,0.276 -0.444,0.552 -0.18,-0.204 -0.36,-0.312 -0.18,-0.108 -0.468,-0.216 0.324,-0.252 0.6,-0.516 0.288,-0.276 0.564,-0.6 0.288,-0.324 0.564,-0.696 0.276,-0.384 0.588,-0.852 0.252,-0.372 0.42,-0.672 0.18,-0.312 0.3,-0.564 0.12,-0.252 0.192,-0.456 0.072,-0.216 0.108,-0.42 0.168,0.108 0.372,0.192 0.216,0.072 0.396,0.096 0.276,0.024 0.288,0.132 0.012,0.096 -0.228,0.204 -0.108,0.06 -0.228,0.168 -0.108,0.108 -0.24,0.336 0.936,0.576 1.764,1.176 0.828,0.588 1.44,1.068 l -0.564,0.636 q -0.288,-0.288 -0.6,-0.564 -0.312,-0.288 -0.66,-0.564 -0.348,-0.288 -0.756,-0.588 -0.408,-0.3 -0.9,-0.648 -0.276,0.504 -0.684,1.116 -0.396,0.612 -0.888,1.26 z" />
    </g>
    <g
       id="text41"
       style="font-size:12px;font-family:'Heiti SC';fill:#CF2E25;fill-opacity:1" />
    <g
       id="text43"
       style="font-size:12px;font-family:'Heiti SC';fill:#CF2E25;fill-opacity:1"
       aria-label="X">
      <path
         id="path106"
         style="font-size:12px;font-family:'Heiti SC';fill:#CF2E25;fill-opacity:1"
         d="m 11.43175,25.664 h 1.008 l 2.064,3.36 2.088,-3.36 h 0.996 l -2.568,4.176 2.736,4.44 h -1.008 l -2.244,-3.612 -2.244,3.612 h -1.008 l 2.748,-4.44 z" />
    </g>
    <g
       id="text45"
       style="font-size:12px;font-family:'Heiti SC';fill:#CF2E25;fill-opacity:1"
       aria-label="Y">
      <path
         id="path109"
         style="font-size:12px;font-family:'Heiti SC';fill:#CF2E25;fill-opacity:1"
         d="m 18.77825,25.664 h 0.996 l 2.196,3.552 2.172,-3.552 h 0.996 l -2.736,4.5 v 4.116 h -0.84 v -4.116 z" />
    </g>
    <g
       id="text47"
       style="font-size:12px;font-family:'Heiti SC';fill:#CF2E25;fill-opacity:1"
       aria-label="N">
      <path
         id="path112"
         style="font-size:12px;font-family:'Heiti SC';fill:#CF2E25;fill-opacity:1"
         d="m 26.27475,34.28 v -8.616 h 0.192 l 5.724,6.6 v -6.6 h 0.852 v 8.616 h -0.192 l -5.688,-6.516 v 6.516 z" />
    </g>
    <g
       id="text49"
       style="font-size:12px;font-family:'Heiti SC';fill:#CF2E25;fill-opacity:1"
       aria-label="P">
      <path
         id="path115"
         style="font-size:12px;font-family:'Heiti SC';fill:#CF2E25;fill-opacity:1"
         d="m 34.20025,25.664 h 1.716 q 1.524,0 1.992,0.12 0.468,0.12 0.852,0.42 0.396,0.3 0.612,0.756 0.216,0.444 0.216,0.996 0,0.888 -0.48,1.452 -0.48,0.564 -1.212,0.72 -0.72,0.144 -2.22,0.144 h -0.612 v 4.008 h -0.864 z m 0.864,0.84 v 2.94 h 1.452 q 1.308,0.024 1.74,-0.42 0.432,-0.456 0.432,-1.068 0,-1.452 -2.1,-1.452 z" />
    </g>
    <g
       id="text51"
       style="font-size:12px;font-family:'Heiti SC';fill:#CF2E25;fill-opacity:1"
       aria-label=".">
      <path
         id="path118"
         style="font-size:12px;font-family:'Heiti SC';fill:#CF2E25;fill-opacity:1"
         d="m 40.87325,33.716 q 0,-0.3 0.216,-0.504 0.216,-0.216 0.504,-0.216 0.3,0 0.504,0.216 0.216,0.204 0.216,0.516 0,0.3 -0.216,0.516 -0.204,0.204 -0.504,0.204 -0.288,0 -0.504,-0.216 -0.216,-0.216 -0.216,-0.516 z" />
    </g>
    <g
       id="text53"
       style="font-size:12px;font-family:'Heiti SC';fill:#CF2E25;fill-opacity:1"
       aria-label="C">
      <path
         id="path121"
         style="font-size:12px;font-family:'Heiti SC';fill:#CF2E25;fill-opacity:1"
         d="m 51.91575,27.26 -0.672,0.516 q -1.2,-1.488 -3.084,-1.488 -1.536,0 -2.652,1.08 -1.104,1.08 -1.104,2.652 0,1.56 1.08,2.616 1.092,1.044 2.724,1.044 1.824,0 3.036,-1.416 l 0.672,0.516 q -0.636,0.84 -1.608,1.284 -0.972,0.432 -2.148,0.432 -2.052,0 -3.36,-1.296 -1.308,-1.296 -1.308,-3.276 0,-1.224 0.6,-2.256 0.612,-1.044 1.68,-1.632 1.08,-0.588 2.316,-0.588 1.236,0 2.22,0.468 0.984,0.468 1.608,1.344 z" />
    </g>
    <g
       id="text55"
       style="font-size:12px;font-family:'Heiti SC';fill:#CF2E25;fill-opacity:1"
       aria-label="O">
      <path
         id="path124"
         style="font-size:12px;font-family:'Heiti SC';fill:#CF2E25;fill-opacity:1"
         d="m 53.14075,30.008 q 0,-1.248 0.6,-2.304 0.6,-1.056 1.644,-1.656 1.044,-0.6 2.268,-0.6 1.236,0 2.292,0.6 1.068,0.588 1.668,1.644 0.612,1.044 0.612,2.28 0,1.224 -0.6,2.28 -0.6,1.044 -1.656,1.644 -1.044,0.6 -2.28,0.6 -1.224,0 -2.28,-0.588 -1.056,-0.6 -1.668,-1.644 -0.6,-1.044 -0.6,-2.256 z m 8.184,-0.036 q 0,-1.548 -1.08,-2.616 -1.068,-1.068 -2.58,-1.068 -1.548,0 -2.592,1.08 -1.032,1.068 -1.032,2.616 0,1.536 1.068,2.604 1.068,1.068 2.58,1.068 1.512,0 2.568,-1.044 1.068,-1.044 1.068,-2.64 z" />
    </g>
    <g
       id="text57"
       style="font-size:12px;font-family:'Heiti SC';fill:#CF2E25;fill-opacity:1"
       aria-label="M">
      <path
         id="path127"
         style="font-size:12px;font-family:'Heiti SC';fill:#CF2E25;fill-opacity:1"
         d="m 63.50375,34.28 1.224,-8.616 h 0.132 l 3.504,7.068 3.48,-7.068 h 0.132 l 1.236,8.616 h -0.852 l -0.84,-6.168 -3.048,6.168 h -0.216 l -3.084,-6.216 -0.84,6.216 z" />
    </g>
  </g>
</svg>
