<?xml version="1.0" encoding="utf-8"?>
<!--
  - Copyright (c) 2020 - 2023 wldos.com. All rights reserved.
  - Licensed under the AGPL or a commercial license.
  - For AGPL see License in the project root for license information.
  - For commercial licenses see term.md or https://www.wldos.com
  -
  -->

<!-- Generator: Adobe Illustrator 22.0.0, SVG Export Plug-In . SVG Version: 6.00 Build 0)  -->
<svg version="1.1" id="图层_1" xmlns="http://www.w3.org/2000/svg" xmlns:xlink="http://www.w3.org/1999/xlink" x="0px" y="0px"
	 viewBox="0 0 73 32" style="enable-background:new 0 0 73 32;" xml:space="preserve">
<path d="M7.2,10.3h3l0.8,5.5l0.5,3.9h0.1c0.2-1.3,0.5-2.6,0.7-3.9l1.2-5.5h2.5l1.3,5.5c0.2,1.2,0.5,2.5,0.7,3.9H18
	c0.1-1.3,0.3-2.6,0.5-3.9l0.8-5.5H22l-2.1,12.2h-3.7l-1.1-5.3c-0.2-0.9-0.4-1.9-0.5-2.8h-0.1c-0.1,0.9-0.3,1.9-0.5,2.8L13,22.4H9.4
	L7.2,10.3z"/>
<path d="M23.6,10.3h2.9V20h4.7v2.5h-7.6V10.3z"/>
<path d="M33.4,10.3h3.5c3.7,0,6.2,1.8,6.2,6s-2.5,6.1-6,6.1h-3.7V10.3z M36.7,20.1c2,0,3.3-0.9,3.3-3.8s-1.4-3.7-3.3-3.7h-0.4v7.5
	H36.7z"/>
<path d="M44.7,16.3c0-4,2.3-6.2,5.6-6.2s5.6,2.3,5.6,6.2c0,4-2.3,6.4-5.6,6.4S44.7,20.3,44.7,16.3z M52.9,16.3c0-2.4-1-3.7-2.6-3.7
	c-1.6,0-2.6,1.4-2.6,3.7c0,2.4,1,3.9,2.6,3.9C51.9,20.2,52.9,18.7,52.9,16.3z"/>
<g>
	<g>
		<path d="M18.4,15.8c-0.1,1.3-0.3,2.5-0.5,3.9h-0.1c-0.2-1.3-0.5-2.6-0.7-3.9l-1.3-5.5h-2.5l-1.2,5.5c-0.2,1.3-0.5,2.6-0.7,3.9
			h-0.1L11,15.8l-0.8-5.5h-3l2.2,12.2H13l1.1-5.3c0.2-0.9,0.3-1.9,0.5-2.8h0.1c0.1,0.9,0.3,1.9,0.5,2.8l1.1,5.3h3.7L22,10.3h-2.8
			L18.4,15.8z"/>
		<polygon points="26.6,10.3 23.6,10.3 23.6,22.4 31.3,22.4 31.3,20 26.6,20 		"/>
		<path d="M36.9,10.3h-3.5v12.2H37c3.5,0,6-1.9,6-6.1S40.6,10.3,36.9,10.3z M36.7,20.1h-0.4v-7.5h0.4c2,0,3.3,0.8,3.3,3.7
			C40.1,19.2,38.7,20.1,36.7,20.1z"/>
		<path d="M50.3,10.1c-3.3,0-5.6,2.3-5.6,6.2s2.3,6.4,5.6,6.4s5.6-2.4,5.6-6.4C55.9,12.3,53.6,10.1,50.3,10.1z M50.3,20.2
			c-1.6,0-2.6-1.5-2.6-3.9c0-2.4,1-3.7,2.6-3.7c1.6,0,2.6,1.4,2.6,3.7C52.9,18.7,51.9,20.2,50.3,20.2z"/>
		<path d="M64.1,15.5l-1.5-0.6c-1.1-0.4-1.8-0.7-1.8-1.4c0-0.7,0.6-1,1.5-1c0.9,0,1.7,0.3,2.5,0.9l1.5-1.8c-1.1-1.1-2.5-1.6-4-1.6
			c-2.6,0-4.4,1.6-4.4,3.7c0,1.8,1.2,2.8,2.5,3.3l1.6,0.7c1,0.4,1.7,0.7,1.7,1.4c0,0.7-0.5,1.1-1.6,1.1c-1,0-2.1-0.5-3-1.2l-1.6,2
			c1.3,1.2,3,1.7,4.5,1.7c2.9,0,4.6-1.8,4.6-3.8C66.5,17.2,65.6,16.1,64.1,15.5z"/>
	</g>
</g>
</svg>
