<?xml version="1.0" encoding="utf-8"?><!--
  - Copyright (c) 2020 - 2023 wldos.com. All rights reserved.
  - Licensed under the AGPL or a commercial license.
  - For AGPL see License in the project root for license information.
  - For commercial licenses see term.md or https://www.wldos.com
  -
  -->

<!-- Generator: Adobe Illustrator 22.0.0, SVG Export Plug-In . SVG Version: 6.00 Build 0)  -->
<svg version="1.1" id="图层_1" xmlns="http://www.w3.org/2000/svg"
	 x="0px" y="0px" viewBox="0 0 32 32" style="enable-background:new 0 0 32 32;"
	 xml:space="preserve" width="32" height="32"><style type="text/css">	.st0{fill:none;}	.st1{fill:#008B8B;}</style><g>	<path class="st0" d="M25.4,8c0.1,0,0.2,0,0.3,0l6.2-5.8l-5.5-5.5l-6.1-6.1l-7.8,7.9l-7.9,8L6.2,8C6.3,8,6.5,8,6.6,8H25.4z"/>	<path class="st1" d="M16,0C7.2,0,0,7.2,0,16s7.2,16,16,16s16-7.2,16-16S24.8,0,16,0z M6.6,8h18.8c0.1,0,0.2,0,0.3,0l-8.1,7.6		c-0.9,0.8-2.3,0.8-3.2,0L6.2,8C6.3,8,6.5,8,6.6,8z M5.1,22.5v-13c0-0.3,0.1-0.6,0.2-0.8l7.2,6.7l-7.4,7.4		C5.1,22.7,5.1,22.6,5.1,22.5z M25.4,24H6.6c-0.3,0-0.6-0.1-0.8-0.3l7.6-7.6l0.3,0.3c0.7,0.6,1.5,0.9,2.3,0.9c0.8,0,1.7-0.3,2.3-0.9		l0.3-0.3l7.6,7.6C26,23.9,25.7,24,25.4,24z M26.9,22.5c0,0.1,0,0.3-0.1,0.4l-7.5-7.5l7.3-6.8c0.2,0.2,0.3,0.5,0.3,0.9V22.5z"/></g></svg>