<?xml version="1.0" encoding="UTF-8"?>
<!--
  - Copyright (c) 2020 - 2023 wldos.com. All rights reserved.
  - Licensed under the Apache License Version 2.0 or a commercial license.
  - For Apache License Version 2.0 see License in the project root for license information.
  - For commercial licenses see term.md or https://www.wldos.com
  -
  -->

<!DOCTYPE svg PUBLIC "-//W3C//DTD SVG 1.1//EN" "http://www.w3.org/Graphics/SVG/1.1/DTD/svg11.dtd">
<!-- Creator: CorelDRAW X7 -->
<svg xmlns="http://www.w3.org/2000/svg" xml:space="preserve" width="131.233mm" height="42.2058mm" version="1.1" style="shape-rendering:geometricPrecision; text-rendering:geometricPrecision; image-rendering:optimizeQuality; fill-rule:evenodd; clip-rule:evenodd"
viewBox="0 0 14557 4682"
 xmlns:xlink="http://www.w3.org/1999/xlink">
 <defs>
  <style type="text/css">
   <![CDATA[
    .fil1 {fill:#00A2E9}
    .fil4 {fill:#2F318B}
    .fil2 {fill:black}
    .fil3 {fill:#1C69B2;fill-rule:nonzero}
    .fil0 {fill:black;fill-rule:nonzero}
    .fil5 {fill:url(#id0)}
   ]]>
  </style>
  <linearGradient id="id0" gradientUnits="userSpaceOnUse" x1="2467.8" y1="3291.04" x2="1781.26" y2="1777.16">
   <stop offset="0" style="stop-opacity:1; stop-color:#2F318B"/>
   <stop offset="1" style="stop-opacity:1; stop-color:#00A2E9"/>
  </linearGradient>
 </defs>
 <g id="图层_x0020_1">
  <metadata id="CorelCorpID_0Corel-Layer"/>
  <path class="fil0" d="M5708 3681l-253 -384 170 0 156 267 165 -267 173 0 -266 389 0 294 -145 0 0 -299zm875 -384l0 409c0,33 3,59 8,77 6,18 15,33 28,46 29,28 69,42 120,42 33,0 61,-5 85,-17 25,-11 42,-26 51,-45 10,-19 14,-53 14,-103l0 -409 146 0 0 402c0,54 -6,97 -17,132 -11,34 -29,62 -52,83 -54,47 -130,71 -229,71 -106,0 -183,-23 -232,-70 -25,-24 -42,-50 -52,-80 -9,-30 -14,-72 -14,-125l0 -413 144 0zm1975 182l0 501 -140 0 0 -683 187 0 271 509 0 -509 138 0 0 683 -178 0 -278 -501zm1019 156l-225 -338 179 0 134 225 145 -225 176 0 -231 338 231 345 -171 0 -150 -235 -148 235 -173 0 233 -345zm741 345l0 -683 145 0 0 683 -145 0zm646 -133l0 133 -124 0 0 -133 124 0zm531 -428l-217 0 0 -122 588 0 0 122 -226 0 0 561 -145 0 0 -561zm1214 -122l0 122 -189 0c-49,0 -85,3 -108,10 -22,7 -41,20 -56,40 -10,14 -17,27 -21,41 -4,13 -7,37 -10,69l384 0 0 122 -384 0c6,59 23,100 52,123 30,23 80,34 150,34l182 0 0 122 -189 0c-51,0 -96,-3 -135,-9 -62,-11 -111,-38 -147,-81 -52,-63 -78,-148 -78,-255 0,-119 37,-212 110,-278 25,-22 52,-38 80,-47 29,-9 67,-13 114,-13l245 0zm890 561l0 122 -238 0c-45,0 -80,-3 -104,-7 -84,-17 -144,-63 -179,-141 -23,-51 -35,-116 -35,-192 0,-92 18,-166 53,-223 26,-42 61,-72 104,-91 44,-20 99,-29 168,-29l231 0 0 122 -215 0c-65,0 -112,17 -142,52 -25,29 -38,80 -38,156 0,101 19,167 58,198 28,22 70,33 128,33l209 0zm497 -379l0 501 -139 0 0 -683 139 0 0 182zm318 327l0 -509 139 0 0 683 -139 0 0 -174z"/>
  <path class="fil0" d="M7356 3980l281 -678 166 0 280 678 -168 0c0,0 -195,-515 -195,-515 0,0 -195,515 -195,515l-169 0z"/>
  <polygon class="fil1" points="7721,3677 7778,3828 7836,3980 7721,3980 7606,3980 7664,3828 "/>
  <path class="fil0" d="M5496 1245l1753 0 0 -218 -1753 0 0 218zm6694 1274l0 -229 -184 0 0 -1338 -210 0c0,318 0,582 -1,806 -1,215 -2,374 -3,505l-1 27 -507 0 0 229 505 0 -1 156 0 104 218 0 0 -260 184 0zm-990 -806l-228 0 0 1066 228 0 0 -1066zm-654 0l-229 0 0 1066 229 0 0 -1066zm-2419 437l-228 0 0 629 228 0 0 -629zm-2672 -493l0 201 390 0 -1 642c0,41 -11,71 -30,90 -21,21 -48,29 -80,29l-279 0 0 194 445 0c66,0 120,-13 156,-44 31,-26 48,-68 48,-128l1 -783 486 0c0,243 14,523 0,760 -2,29 -2,54 1,76 5,34 15,59 31,77 16,16 38,25 66,27 14,1 29,0 45,-2 129,-16 404,0 548,0l0 -193 -346 0c-27,0 -49,-9 -64,-26 -14,-17 -21,-40 -21,-69l0 -650 431 0 0 -201 -1827 0zm4009 -674c-4,19 -16,34 -35,43 -15,7 -34,11 -58,11l-1482 0 0 168 772 0 0 244 -215 0 -41 -141 -349 0 42 141 -209 0 0 168 772 0 0 411 259 0 0 -411 772 0 0 -168 -201 0 42 -141 -357 0 -41 141 -215 0 0 -244 592 0c33,0 58,-1 77,-3 17,-3 27,-5 32,-8l1 -2 2 0c6,-3 11,-9 15,-17 5,-11 9,-26 11,-45 8,-55 30,-135 43,-193l-217 0 -12 46zm-210 952c13,21 25,38 36,50 10,12 19,19 27,23l3 2c5,3 15,6 30,8 18,2 42,4 71,4l271 0 0 -169 -138 0c-18,0 -35,-3 -51,-10 -16,-7 -30,-18 -44,-31l-125 -149 -260 0 180 272zm-1365 -82l0 169 281 0c57,2 101,-1 131,-11 23,-8 36,-19 39,-34l1 -4 192 -310 -251 0 -108 146c-11,15 -24,26 -39,33 -15,8 -32,11 -50,11l-196 0zm2439 -810l0 168 321 0 0 172 -329 0 0 185 329 0 0 1203 210 0 0 -1203 351 0 0 -185 -335 0 0 -180 122 0c45,0 82,-3 112,-9 28,-6 48,-15 61,-26 9,-7 17,-21 22,-42 6,-23 10,-55 10,-94l0 -72 -235 0 0 6c0,24 -7,43 -21,56l0 1c-13,13 -32,20 -57,20l-561 0zm995 952c-2,55 11,94 38,117 29,24 75,34 140,29l190 -1 0 -168 -37 0c-30,4 -55,-4 -74,-21 -19,-17 -31,-42 -38,-76l-29 -185 -227 0 37 303 0 2zm-38 -952l38 334c8,39 17,71 26,95 8,23 16,38 24,46 8,8 19,14 32,18 16,5 34,7 57,7l237 0 0 -176c-9,0 -49,-2 -56,0 -29,3 -52,-6 -70,-25 -16,-17 -26,-42 -30,-75l-1 -9 -30 -215 -227 0zm2299 17l0 168 323 0 0 304 -340 0 0 169 737 0 -257 400 -181 -245 -254 0 319 421 -351 444 192 0c27,0 49,-2 64,-7 11,-3 17,-7 19,-10l1 -3c63,-82 127,-165 190,-247 50,69 111,144 156,214 11,18 25,31 41,40 17,9 36,13 60,13l223 0c-121,-148 -239,-294 -357,-444l388 -573 0 -172 -415 0 0 -304 415 0 0 -168 -415 0 0 -166 -235 0 0 166 -323 0zm-846 185l414 0 0 338 -14 8c-25,14 -120,121 -203,216 -73,83 -137,156 -157,159l-65 8 0 188 80 0c23,0 41,-1 56,-4 14,-2 23,-5 29,-8 50,-31 217,-215 218,-216l48 -54 0 596c0,27 -4,45 -18,59 -14,13 -32,18 -59,18l-296 0 0 168 420 0c67,0 113,-12 140,-39 28,-28 40,-73 40,-140l0 -806 74 0 0 -210 -74 0 0 -281 107 0 0 -193 -107 0 0 -141 -219 0 0 141 -414 0 0 193z"/>
  <rect class="fil2" x="8357" y="2150" width="229" height="630"/>
  <polygon class="fil2" points="8357,2545 9242,2545 9242,2779 8357,2779 "/>
  <rect class="fil2" x="9466" y="2150" width="229" height="630"/>
  <polygon class="fil2" points="9695,2384 8848,2384 8848,2150 9695,2150 "/>
  <rect class="fil2" x="14070" y="3578" width="366" height="118"/>
  <path class="fil3" d="M252 2502c-43,-577 151,-1118 501,-1525 350,-407 855,-681 1433,-725 578,-44 1118,151 1526,501 334,287 577,679 679,1129 0,0 -46,507 -102,715 40,-53 102,-100 131,-154 394,-744 -115,-1504 -548,-1877 -455,-391 -1059,-608 -1705,-559 -645,49 -1210,355 -1601,809 -390,455 -608,1060 -559,1705 0,0 245,-19 245,-19z"/>
  <path class="fil4" d="M2887 2372c654,570 1276,251 1365,-90 59,-223 128,-477 26,-752 228,441 227,760 129,978 -206,458 -864,703 -1700,25 0,0 180,-161 180,-161z"/>
  <path class="fil3" d="M252 2179c-44,578 151,1119 501,1526 350,407 855,681 1433,725 577,43 1118,-151 1525,-501 334,-287 578,-679 680,-1129 0,0 -47,-508 -103,-715 40,53 98,103 131,154 444,670 -114,1504 -547,1876 -455,391 -1059,609 -1705,560 -645,-49 -1210,-355 -1601,-810 -391,-455 -608,-1059 -559,-1704 0,0 245,18 245,18z"/>
  <path class="fil4" d="M2462 2292l201 -147c-403,-395 -1040,-531 -1500,-285 -147,163 -227,468 -103,627 29,37 218,87 257,114 -201,-256 -25,-479 185,-549 286,-111 767,57 960,240z"/>
  <path class="fil1" d="M1317 2601c5,3 13,93 71,118 221,95 759,234 759,234 414,-275 828,-832 1151,-904 881,-169 1198,502 954,1161 679,-1272 -489,-1609 -1079,-1336 -582,269 -1287,1129 -1856,727z"/>
  <path class="fil5" d="M1317 2601c-403,-212 -287,-546 -142,-747 -603,283 -445,1054 72,1247 238,88 540,96 900,-148 414,-275 768,-821 1338,-928 -561,-10 -1514,849 -2025,649 -48,-19 -97,-41 -143,-73z"/>
 </g>
</svg>
