<?xml version="1.0" encoding="utf-8"?>
<!-- Generator: Adobe Illustrator 22.0.0, SVG Export Plug-In . SVG Version: 6.00 Build 0)  -->
<svg version="1.1" id="图层_1" xmlns="http://www.w3.org/2000/svg" xmlns:xlink="http://www.w3.org/1999/xlink" x="0px" y="0px"
	 viewBox="0 0 73 32" style="enable-background:new 0 0 73 32;" xml:space="preserve">
<style type="text/css">
	.st0{fill:#0A0101;}
</style>
<g>
	<path class="st0" d="M11.2,22.3l-3.1-5.5l-1.6,1.9v3.6H4.2V10.2h2.4v5.3l4.3-5.3h2.9l-4,4.8l4.3,7.3H11.2z"/>
	<path class="st0" d="M19.1,17.7h-2.3v4.6h-2.4V10.2h4.7c2.5,0,4,1.7,4,3.8S21.6,17.7,19.1,17.7z M19,12.3h-2.2v3.3H19
		c1.1,0,1.8-0.7,1.8-1.6C20.8,13,20.1,12.3,19,12.3z"/>
	<path class="st0" d="M28.3,22.3v-0.8c-0.6,0.6-1.2,0.8-2.2,0.8c-1,0-1.7-0.3-2.3-0.8c-0.5-0.5-0.7-1.2-0.7-2c0-1.4,1-2.6,3-2.6h2.1
		v-0.4c0-1-0.5-1.4-1.6-1.4c-0.8,0-1.2,0.2-1.7,0.7l-1.4-1.4c0.9-1,1.7-1.2,3.2-1.2c2.5,0,3.8,1.1,3.8,3.1v5.8H28.3z M28.3,18.5
		h-1.8c-0.8,0-1.2,0.4-1.2,1c0,0.6,0.4,1,1.3,1c0.6,0,1-0.1,1.4-0.4c0.2-0.2,0.3-0.6,0.3-1.1V18.5z"/>
	<path class="st0" d="M34.7,23.7c-0.2,0.5-0.4,0.9-0.7,1.1c-0.5,0.5-1.2,0.7-1.9,0.7h-0.9v-2h0.5c0.6,0,0.9-0.2,1.1-0.8l0.4-1.1
		l-3-8.2h2.3l1.8,5.5l1.8-5.5h2.3L34.7,23.7z"/>
	<path class="st0" d="M43.1,22.4c-1.3,0-2.4-0.4-3.3-1.3c-0.5-0.5-0.8-1.1-1-1.8c-0.1-0.7-0.2-1.7-0.2-3c0-1.3,0.1-2.3,0.2-3
		c0.1-0.7,0.5-1.3,1-1.8c0.9-0.9,2-1.3,3.3-1.3c2.3,0,4,1.4,4.5,3.8h-2.4c-0.3-1-0.9-1.7-2-1.7c-0.6,0-1.2,0.2-1.5,0.6
		c-0.5,0.5-0.6,1.1-0.6,3.4s0.1,2.9,0.6,3.4c0.4,0.4,0.9,0.6,1.5,0.6c1.1,0,1.8-0.7,2-1.7h2.4C47.1,21,45.4,22.4,43.1,22.4z"/>
	<path class="st0" d="M56.8,22.3v-7.1l-2.3,4.6h-1.6l-2.3-4.6v7.1h-2.4V10.2h2.3l3.2,6.5l3.1-6.5h2.3v12.1H56.8z"/>
	<path class="st0" d="M64.2,22.4c-1.8,0-3.2-0.4-4.4-1.6l1.5-1.5c0.8,0.8,1.8,1,2.9,1c1.4,0,2.1-0.5,2.1-1.5c0-0.4-0.1-0.8-0.4-1
		c-0.2-0.2-0.5-0.3-1.1-0.4l-1.5-0.2c-1-0.2-1.8-0.5-2.3-1c-0.6-0.6-0.9-1.4-0.9-2.4c0-2.2,1.6-3.7,4.2-3.7c1.7,0,2.9,0.4,3.9,1.4
		L66.8,13c-0.8-0.7-1.7-0.8-2.5-0.8c-1.3,0-1.9,0.7-1.9,1.5c0,0.3,0.1,0.6,0.4,0.9c0.2,0.2,0.6,0.4,1.1,0.5l1.4,0.2
		c1.1,0.2,1.8,0.5,2.3,0.9c0.6,0.6,0.9,1.5,0.9,2.6C68.6,21,66.7,22.4,64.2,22.4z"/>
</g>
</svg>
